<?xml version="1.0" encoding="utf-8"?>
<!-- Generator: Adobe Illustrator 26.0.3, SVG Export Plug-In . SVG Version: 6.00 Build 0)  -->
<svg version="1.1" id="Layer_1" xmlns="http://www.w3.org/2000/svg" xmlns:xlink="http://www.w3.org/1999/xlink" x="0px" y="0px"
	 viewBox="0 0 512 512" style="enable-background:new 0 0 512 512;" xml:space="preserve">
<style type="text/css">
	.st0{fill:#FFFFFF;}
</style>
<path class="st0" d="M362.7,0c-11.8,0-21.3,9.6-21.3,21.3c0,62.9-55.1,85.3-106.7,85.3H85.3C38.2,106.7,0,144.9,0,192v42.7
	C0.1,260.5,12,285,32.3,301l76.2,170.1c11.1,24.9,35.8,40.9,63,40.9c35.1,0,63.6-28.5,63.6-63.7c0-8.9-1.9-17.8-5.5-25.9L182.6,320
	h52.1c51.6,0,106.7,22.4,106.7,85.3c0,11.8,9.6,21.3,21.3,21.3c11.8,0,21.3-9.6,21.3-21.3v-384C384,9.6,374.4,0,362.7,0L362.7,0z
	 M190.7,439.9c4.7,10.6-0.1,23-10.7,27.7c-2.7,1.2-5.6,1.8-8.5,1.8c-10.4,0-19.8-6.1-24-15.7L87.6,320h48.1L190.7,439.9z
	 M341.3,311.5c-30.5-23.5-68.2-35.6-106.7-34.1H85.3c-23.6,0-42.7-19.1-42.7-42.7V192c0-23.6,19.1-42.7,42.7-42.7h149.3
	c38.4,1.5,76.2-10.6,106.7-34V311.5z M509.9,329.6c-5.3,10.5-18.1,14.8-28.6,9.6c0,0,0,0,0,0l-42.7-21.3
	c-10.5-5.3-14.8-18.1-9.6-28.6c5.3-10.5,18.1-14.8,28.6-9.6l42.7,21.3c10.5,5.3,14.8,18,9.6,28.5L509.9,329.6z M429,137.6
	c-5.3-10.5-1-23.4,9.5-28.6c0,0,0,0,0,0l42.7-21.3c10.5-5.3,23.4-1,28.6,9.6c5.3,10.5,1,23.4-9.6,28.6l0,0l-42.7,21.3
	C447.1,152.5,434.3,148.2,429,137.6C429,137.7,429,137.6,429,137.6z M426.7,213.3c0-11.8,9.6-21.3,21.3-21.3h42.7
	c11.8,0,21.3,9.6,21.3,21.3c0,11.8-9.6,21.3-21.3,21.3H448C436.2,234.7,426.7,225.1,426.7,213.3z"/>
</svg>
