<?xml version="1.0" encoding="utf-8"?>
<!-- Generator: Adobe Illustrator 26.0.3, SVG Export Plug-In . SVG Version: 6.00 Build 0)  -->
<svg version="1.1" id="Outline" xmlns="http://www.w3.org/2000/svg" xmlns:xlink="http://www.w3.org/1999/xlink" x="0px" y="0px"
	 viewBox="0 0 512 512" style="enable-background:new 0 0 512 512;" xml:space="preserve">
<style type="text/css">
	.st0{fill:#FFFFFF;}
</style>
<path class="st0" d="M192,298.7h128c11.8,0,21.3-9.6,21.3-21.3S331.8,256,320,256H192c-11.8,0-21.3,9.6-21.3,21.3
	S180.2,298.7,192,298.7z"/>
<path class="st0" d="M405.3,0H106.7C47.8,0.1,0.1,47.8,0,106.7V128c0,18.2,7.8,35.5,21.3,47.7v229.7C21.4,464.2,69.1,511.9,128,512
	h256c58.9-0.1,106.6-47.8,106.7-106.7V175.7c13.6-12.1,21.3-29.5,21.3-47.7v-21.3C511.9,47.8,464.2,0.1,405.3,0z M42.7,106.7
	c0-35.3,28.7-64,64-64h298.7c35.3,0,64,28.7,64,64V128c0,11.8-9.6,21.3-21.3,21.3H64c-11.8,0-21.3-9.6-21.3-21.3V106.7z M448,405.3
	c0,35.3-28.7,64-64,64H128c-35.3,0-64-28.7-64-64V192h384V405.3z"/>
</svg>
