<?xml version="1.0" encoding="utf-8"?>
<!-- Generator: Adobe Illustrator 26.0.3, SVG Export Plug-In . SVG Version: 6.00 Build 0)  -->
<svg version="1.1" id="Layer_1" xmlns="http://www.w3.org/2000/svg" xmlns:xlink="http://www.w3.org/1999/xlink" x="0px" y="0px"
	 viewBox="0 0 512 512" style="enable-background:new 0 0 512 512;" xml:space="preserve">
<style type="text/css">
	.st0{fill:#1A1A1A;}
</style>
<path class="st0" d="M383.9,48.8C304.8-21.9,183.4-15,112.8,64c-25.7,28.8-42.1,64.6-47.2,102.8c-8.3,61.6,13.9,123.4,59.6,165.6
	c28.1,24.7,44.6,60,45.5,97.4v3.4c0,43.5,35.3,78.7,78.7,78.7h13.2c43.5,0,78.7-35.3,78.7-78.7v-11.7c0.6-33.1,15.7-64.3,41.2-85.3
	c79.7-69.8,87.7-191,17.9-270.8C395.3,59.6,389.7,54,383.9,48.8L383.9,48.8z M262.6,469.3h-13.2c-19.9,0-36-16.2-36.1-36.1
	c0,0-0.1-5.5-0.2-6.6h85.5v6.6C298.6,453.2,282.5,469.3,262.6,469.3z M354.3,304.2c-24.3,21.1-41.8,48.8-50.4,79.8h-26.6V230.7
	c25.5-9,42.6-33,42.7-60.1c0-11.8-9.6-21.3-21.3-21.3c-11.8,0-21.3,9.6-21.3,21.3c0,11.8-9.6,21.3-21.3,21.3
	c-11.8,0-21.3-9.6-21.3-21.3c0-11.8-9.6-21.3-21.3-21.3c-11.8,0-21.3,9.6-21.3,21.3c0.1,27,17.2,51.1,42.7,60.1V384h-28.2
	c-9.6-31.8-27.7-60.4-52.2-82.8C93.9,245,90.6,150.5,146.8,90.1c24.1-25.9,56.6-42.4,91.7-46.5c5.9-0.7,11.8-1,17.7-1
	c36.6-0.1,72,13.4,99.2,37.9c61.5,54.8,66.9,149.1,12.1,210.6C363.4,295.8,359,300.1,354.3,304.2L354.3,304.2z"/>
</svg>
