<?xml version="1.0" encoding="utf-8"?>
<!-- Generator: Adobe Illustrator 26.0.3, SVG Export Plug-In . SVG Version: 6.00 Build 0)  -->
<svg version="1.1" id="Layer_1" xmlns="http://www.w3.org/2000/svg" xmlns:xlink="http://www.w3.org/1999/xlink" x="0px" y="0px"
	 viewBox="0 0 512 512" style="enable-background:new 0 0 512 512;" xml:space="preserve">
<style type="text/css">
	.st0{fill:#1A1A1A;}
</style>
<path class="st0" d="M149.3,298.7c0,11.8-9.6,21.3-21.3,21.3h-21.3c-11.8,0-21.3-9.6-21.3-21.3c0-11.8,9.6-21.3,21.3-21.3H128
	C139.8,277.3,149.3,286.9,149.3,298.7z M234.7,277.3h-21.3c-11.8,0-21.3,9.6-21.3,21.3c0,11.8,9.6,21.3,21.3,21.3h21.3
	c11.8,0,21.3-9.6,21.3-21.3C256,286.9,246.4,277.3,234.7,277.3z M128,362.7h-21.3c-11.8,0-21.3,9.6-21.3,21.3
	c0,11.8,9.6,21.3,21.3,21.3H128c11.8,0,21.3-9.6,21.3-21.3C149.3,372.2,139.8,362.7,128,362.7z M234.7,362.7h-21.3
	c-11.8,0-21.3,9.6-21.3,21.3c0,11.8,9.6,21.3,21.3,21.3h21.3c11.8,0,21.3-9.6,21.3-21.3C256,372.2,246.4,362.7,234.7,362.7z
	 M128,106.7h-21.3c-11.8,0-21.3,9.6-21.3,21.3s9.6,21.3,21.3,21.3H128c11.8,0,21.3-9.6,21.3-21.3S139.8,106.7,128,106.7z
	 M234.7,106.7h-21.3c-11.8,0-21.3,9.6-21.3,21.3s9.6,21.3,21.3,21.3h21.3c11.8,0,21.3-9.6,21.3-21.3S246.4,106.7,234.7,106.7z
	 M128,192h-21.3c-11.8,0-21.3,9.6-21.3,21.3c0,11.8,9.6,21.3,21.3,21.3H128c11.8,0,21.3-9.6,21.3-21.3
	C149.3,201.6,139.8,192,128,192z M234.7,192h-21.3c-11.8,0-21.3,9.6-21.3,21.3c0,11.8,9.6,21.3,21.3,21.3h21.3
	c11.8,0,21.3-9.6,21.3-21.3C256,201.6,246.4,192,234.7,192z M512,213.3v192c-0.1,58.9-47.8,106.6-106.7,106.7H106.7
	C47.8,511.9,0.1,464.2,0,405.3V106.7C0.1,47.8,47.8,0.1,106.7,0h128c58.9,0.1,106.6,47.8,106.7,106.7h64
	C464.2,106.7,511.9,154.5,512,213.3z M106.7,469.3h192V106.7c0-35.3-28.7-64-64-64h-128c-35.3,0-64,28.7-64,64v298.7
	C42.7,440.7,71.3,469.3,106.7,469.3z M469.3,213.3c0-35.3-28.7-64-64-64h-64v320h64c35.3,0,64-28.7,64-64V213.3z M405.3,277.3
	c-11.8,0-21.3,9.6-21.3,21.3c0,11.8,9.6,21.3,21.3,21.3s21.3-9.6,21.3-21.3C426.7,286.9,417.1,277.3,405.3,277.3z M405.3,362.7
	c-11.8,0-21.3,9.6-21.3,21.3c0,11.8,9.6,21.3,21.3,21.3s21.3-9.6,21.3-21.3C426.7,372.2,417.1,362.7,405.3,362.7z M405.3,192
	c-11.8,0-21.3,9.6-21.3,21.3c0,11.8,9.6,21.3,21.3,21.3s21.3-9.6,21.3-21.3C426.7,201.6,417.1,192,405.3,192z"/>
</svg>
