<?xml version="1.0" encoding="utf-8"?>
<!-- Generator: Adobe Illustrator 26.0.3, SVG Export Plug-In . SVG Version: 6.00 Build 0)  -->
<svg version="1.1" id="Layer_1" xmlns="http://www.w3.org/2000/svg" xmlns:xlink="http://www.w3.org/1999/xlink" x="0px" y="0px"
	 viewBox="0 0 512 512" style="enable-background:new 0 0 512 512;" xml:space="preserve">
<style type="text/css">
	.st0{fill-rule:evenodd;clip-rule:evenodd;fill:#1A1A1A;}
</style>
<g>
	<path class="st0" d="M194.4,235.3c10-43.4-56.6-47.7-48.6-88.7L163.2,58h-45.1c-18,1.4-23.6,12.2-26.7,26.5l-3.9,19.9
		c-6.7,45.3,51.9,48.7,50.4,83.2L85.8,454h45.5c11.7,0,23.2-10.3,25-19.9L194.4,235.3z"/>
	<path class="st0" d="M308,327.2c10-43.4-56.6-47.7-48.6-88.7l35-180.6h-45.1c-18,1.4-23.6,12.2-26.7,26.5l-21.6,111.9
		c-6.7,45.3,51.9,48.7,50.4,83.2L217,454h45.5c11.7,0,23.2-10.3,25-19.9L308,327.2z"/>
	<path class="st0" d="M421.7,421.3c10-43.4-56.6-47.7-48.6-88.7L426.2,58h-45.1c-18,1.4-23.6,12.2-26.7,26.5l-39.6,205.9
		c-6.7,45.3,51.9,48.7,50.4,83.2L348.8,454h45.5c11.7,0,23.2-10.3,25-19.9L421.7,421.3z"/>
</g>
</svg>
