<svg xmlns="http://www.w3.org/2000/svg" xmlns:xlink="http://www.w3.org/1999/xlink" viewBox="0 0 200 42.83"><defs><style>.cls-1{isolation:isolate;}.cls-2{fill:url(#radial-gradient);}.cls-3{fill:#414242;}.cls-10,.cls-11,.cls-12,.cls-13,.cls-14,.cls-16,.cls-17,.cls-18,.cls-21,.cls-22,.cls-24,.cls-25,.cls-3,.cls-4,.cls-5,.cls-6,.cls-7,.cls-8,.cls-9{fill-rule:evenodd;}.cls-4{fill:#60bb55;}.cls-10,.cls-14,.cls-15,.cls-16,.cls-19,.cls-20,.cls-24,.cls-5,.cls-7,.cls-9{mix-blend-mode:multiply;}.cls-5{fill:url(#linear-gradient);}.cls-6{fill:#84c468;}.cls-7{fill:url(#linear-gradient-2);}.cls-8{fill:#4f9d4d;}.cls-9{fill:url(#linear-gradient-3);}.cls-10,.cls-16{opacity:0.7;}.cls-10{fill:url(#linear-gradient-4);}.cls-11{fill:#fff;}.cls-12{fill:url(#linear-gradient-5);}.cls-13{fill:#303030;}.cls-14{fill:url(#linear-gradient-6);}.cls-15,.cls-20{opacity:0.5;}.cls-15{fill:url(#linear-gradient-7);}.cls-16{fill:url(#linear-gradient-8);}.cls-17{fill:url(#linear-gradient-9);}.cls-18{fill:url(#linear-gradient-10);}.cls-19,.cls-20{fill:url(#linear-gradient-11);}.cls-21,.cls-22{opacity:0.8;}.cls-21{fill:url(#linear-gradient-13);}.cls-22{fill:url(#linear-gradient-14);}.cls-23{fill:url(#linear-gradient-15);}.cls-24{opacity:0.9;fill:url(#linear-gradient-16);}.cls-25{fill:url(#linear-gradient-17);}.cls-26{fill:#42b549;}</style><radialGradient id="radial-gradient" cx="16.43" cy="43.76" r="14.21" gradientTransform="translate(-2.78 25.99) scale(1.5 0.28)" gradientUnits="userSpaceOnUse"><stop offset="0.12" stop-color="#515252" stop-opacity="0.7"/><stop offset="0.97" stop-color="#515252" stop-opacity="0"/></radialGradient><linearGradient id="linear-gradient" x1="26.03" y1="15.02" x2="7.76" y2="48.63" gradientUnits="userSpaceOnUse"><stop offset="0" stop-color="#519b4c" stop-opacity="0"/><stop offset="1" stop-color="#519b4c"/></linearGradient><linearGradient id="linear-gradient-2" x1="22.23" y1="35.38" x2="22.3" y2="44.87" xlink:href="#linear-gradient"/><linearGradient id="linear-gradient-3" x1="31.18" y1="22.23" x2="35.11" y2="54.15" xlink:href="#linear-gradient"/><linearGradient id="linear-gradient-4" x1="39.86" y1="13.89" x2="19.13" y2="31.86" gradientUnits="userSpaceOnUse"><stop offset="0" stop-color="#3f843f"/><stop offset="1" stop-color="#519b4c"/></linearGradient><linearGradient id="linear-gradient-5" x1="30.71" y1="28.83" x2="30.71" y2="20.35" gradientUnits="userSpaceOnUse"><stop offset="0" stop-color="#e5e3e3"/><stop offset="1" stop-color="#e5e3e3" stop-opacity="0"/></linearGradient><linearGradient id="linear-gradient-6" x1="29.39" y1="36.13" x2="28.92" y2="44.46" xlink:href="#linear-gradient"/><linearGradient id="linear-gradient-7" x1="22.72" y1="26.75" x2="22.52" y2="36.31" xlink:href="#linear-gradient-4"/><linearGradient id="linear-gradient-8" x1="6.48" y1="21.83" x2="22.63" y2="21.83" xlink:href="#linear-gradient-4"/><linearGradient id="linear-gradient-9" x1="14.56" y1="28.83" x2="14.56" y2="20.35" xlink:href="#linear-gradient-5"/><linearGradient id="linear-gradient-10" x1="23.59" y1="0.72" x2="23.59" y2="6.49" gradientTransform="matrix(1.01, 0, 0, 1.07, -1.07, 25.87)" gradientUnits="userSpaceOnUse"><stop offset="0" stop-color="#f9ec31"/><stop offset="0.21" stop-color="#f9de2e"/><stop offset="0.61" stop-color="#f7bb27"/><stop offset="1" stop-color="#f6921e"/></linearGradient><linearGradient id="linear-gradient-11" x1="27.14" y1="32.27" x2="22.27" y2="28.34" gradientTransform="matrix(1, 0, 0, 1, 0, 0)" xlink:href="#linear-gradient-10"/><linearGradient id="linear-gradient-13" x1="13.61" y1="11.94" x2="13.61" y2="6" gradientUnits="userSpaceOnUse"><stop offset="0.2" stop-color="#fff" stop-opacity="0"/><stop offset="0.97" stop-color="#fff"/></linearGradient><linearGradient id="linear-gradient-14" x1="510.03" y1="12.1" x2="510.03" y2="6.16" gradientTransform="matrix(-1, 0, 0, 1, 541.54, 0)" xlink:href="#linear-gradient-13"/><linearGradient id="linear-gradient-15" x1="22.72" y1="26.16" x2="22.58" y2="33.04" gradientTransform="matrix(1, 0, 0, 1, 0, 0)" xlink:href="#linear-gradient-10"/><linearGradient id="linear-gradient-16" x1="26.09" y1="26.94" x2="20.07" y2="29.03" gradientUnits="userSpaceOnUse"><stop offset="0" stop-color="#f9ec31" stop-opacity="0"/><stop offset="0.09" stop-color="#f9e730" stop-opacity="0.06"/><stop offset="0.27" stop-color="#f8da2d" stop-opacity="0.2"/><stop offset="0.51" stop-color="#f8c529" stop-opacity="0.44"/><stop offset="0.8" stop-color="#f7a823" stop-opacity="0.76"/><stop offset="1" stop-color="#f6921e"/></linearGradient><linearGradient id="linear-gradient-17" x1="23.63" y1="32.19" x2="22.47" y2="23.72" xlink:href="#linear-gradient-13"/></defs><g class="cls-1"><g id="Layer_1" data-name="Layer 1"><ellipse class="cls-2" cx="21.87" cy="38.31" rx="21.87" ry="4.52"/><path class="cls-3" d="M31.73,8.84a9.16,9.16,0,0,0-18.2,0l-.1,1.06,2.84.17.06-1a6.08,6.08,0,0,1,6.31-5.52A6.07,6.07,0,0,1,29,9.05l.17,1.41,2.77-.19Z" transform="translate(0.07 -0.68)"/><path class="cls-4" d="M6,8.41A1.13,1.13,0,0,0,4.9,9.53l0,16.38v3.71L5,39.73a1.12,1.12,0,0,0,1.13,1.12l10.11,0H18l11.21,0A11.27,11.27,0,0,0,40.39,29.55v-.78l0-18.38a2.06,2.06,0,0,0-2-2.05c-2.06,0-4.17,0-6.21.11l-2.55.23a19.85,19.85,0,0,0-6.41,1.72,1.13,1.13,0,0,1-1,0,17.79,17.79,0,0,0-6.41-1.78l-2.55-.19C10.77,8.32,8.33,8.39,6,8.41Z" transform="translate(0.07 -0.68)"/><path class="cls-5" d="M7.14,8.4A2.27,2.27,0,0,0,4.9,10.67l0,15.24v3.71L5,39.71A1.14,1.14,0,0,0,6.1,40.85l10.1,0H18l11.21,0A11.27,11.27,0,0,0,40.39,29.55v-.78l0-18.36A2.08,2.08,0,0,0,38.3,8.34c-2,0-4.16,0-6.19.11l-2.55.23a19.85,19.85,0,0,0-6.4,1.72,1.18,1.18,0,0,1-1.05,0,17.78,17.78,0,0,0-6.4-1.77l-2.55-.19C11.16,8.34,9.11,8.37,7.14,8.4Z" transform="translate(0.07 -0.68)"/><path class="cls-6" d="M8.14,40.85l8.06,0H18l11.21,0a11.25,11.25,0,0,0,7.21-2.65A14.91,14.91,0,0,0,8.14,40.85" transform="translate(0.07 -0.68)"/><path class="cls-7" d="M8.14,40.85l8.06,0H18l11.21,0a11.25,11.25,0,0,0,7.21-2.65A14.91,14.91,0,0,0,8.14,40.85" transform="translate(0.07 -0.68)"/><path class="cls-8" d="M22.69,40.82l6.62-.11A11.08,11.08,0,0,0,40.39,29.55v-.78l0-19.5a.92.92,0,0,0-.92-.92c-2.41,0-4.91,0-7.32.1l-2.55.23a18.75,18.75,0,0,0-6.93,2Z" transform="translate(0.07 -0.68)"/><path class="cls-9" d="M22.69,40.82l6.62-.11A11.08,11.08,0,0,0,40.39,29.55v-.78l0-19.5a.92.92,0,0,0-.92-.92c-2.41,0-4.91,0-7.32.1l-2.55.23a18.75,18.75,0,0,0-6.93,2Z" transform="translate(0.07 -0.68)"/><path class="cls-10" d="M30.69,13.75a8.08,8.08,0,1,1-8.06,8.09,8.07,8.07,0,0,1,8.06-8.09" transform="translate(0.07 -0.68)"/><path class="cls-11" d="M30.69,14.81a7,7,0,1,1-7,7,7,7,0,0,1,7-7" transform="translate(0.07 -0.68)"/><path class="cls-12" d="M37.48,19.9a7.06,7.06,0,0,1-13.56,0,7.06,7.06,0,1,0,13.56,0Z" transform="translate(0.07 -0.68)"/><path class="cls-13" d="M29.9,17.28a4.64,4.64,0,1,1-4.15,5.09,4.73,4.73,0,0,1,.4-2.4,2.24,2.24,0,1,0,3.52-2.66l.23,0" transform="translate(0.07 -0.68)"/><path class="cls-4" d="M22.69,40.82h6.53a11.08,11.08,0,0,0,7.16-2.65,15.2,15.2,0,0,0-13.71-9Z" transform="translate(0.07 -0.68)"/><path class="cls-14" d="M22.69,40.82h6.53a11.08,11.08,0,0,0,7.16-2.65,15.2,15.2,0,0,0-13.71-9Z" transform="translate(0.07 -0.68)"/><path class="cls-15" d="M26.93,28.79a4.34,4.34,0,0,0-4.22-3.06.87.87,0,0,0-.17,0c-.72.07-3.47.36-4.13,3.18a3.34,3.34,0,0,0,0,.45h0l.59.38c.48,1.32,2.76,3.8,3.69,3.81h.08c.77,0,2.85-2.24,3.46-3.7.37-.24.64-.42.69-.47A2.35,2.35,0,0,0,26.93,28.79Z" transform="translate(0.07 -0.68)"/><path class="cls-16" d="M14.54,13.75a8.08,8.08,0,1,1-8.06,8.09,8.07,8.07,0,0,1,8.06-8.09" transform="translate(0.07 -0.68)"/><path class="cls-11" d="M14.54,14.81a7,7,0,1,1-7,7,7,7,0,0,1,7-7" transform="translate(0.07 -0.68)"/><path class="cls-17" d="M21.33,19.9a7.06,7.06,0,0,1-13.56,0,7.42,7.42,0,0,0-.27,2,7.06,7.06,0,1,0,13.83-2Z" transform="translate(0.07 -0.68)"/><path class="cls-13" d="M15.31,17.26a4.63,4.63,0,1,1-4,2.3,2.24,2.24,0,0,0,4.31-.85,2.2,2.2,0,0,0-.54-1.45h.24" transform="translate(0.07 -0.68)"/><path class="cls-18" d="M22.77,32.91c.94,0,3.79-3.15,3.63-4.29a3.93,3.93,0,0,0-3.7-2.83h-.15a4,4,0,0,0-3.63,3c-.19.95,2.69,4.14,3.77,4.14Z" transform="translate(0.07 -0.68)"/><path class="cls-19" d="M25.82,30.12a2.72,2.72,0,0,0,.58-1.5A3.58,3.58,0,0,0,25,26.55a5.54,5.54,0,0,0-2.28-.62h-.17a5.75,5.75,0,0,0-2.26.72,3.59,3.59,0,0,0-1.36,2.13A2.11,2.11,0,0,0,19.39,30a11.82,11.82,0,0,0,3.28,1.55A10.43,10.43,0,0,0,25.82,30.12Z" transform="translate(0.07 -0.68)"/><path class="cls-20" d="M25.82,30.12a2.72,2.72,0,0,0,.58-1.5A3.58,3.58,0,0,0,25,26.55a5.54,5.54,0,0,0-2.28-.62h-.17a5.75,5.75,0,0,0-2.26.72,3.59,3.59,0,0,0-1.36,2.13A2.11,2.11,0,0,0,19.39,30a11.82,11.82,0,0,0,3.28,1.55A10.43,10.43,0,0,0,25.82,30.12Z" transform="translate(0.07 -0.68)"/><path class="cls-21" d="M21.87,11.06a16.21,16.21,0,0,0-6.45-1.92L13.05,9c-2.23-.1-4.5,0-6.66,0a1,1,0,0,0-1,1.05C12.82,8.67,21.87,11.06,21.87,11.06Z" transform="translate(0.07 -0.68)"/><path class="cls-22" d="M23.24,11.06a16.31,16.31,0,0,1,6.45-1.92L32.06,9c2.23-.1,4.51,0,6.66,0a1,1,0,0,1,1,1.05C32.3,8.67,23.24,11.06,23.24,11.06Z" transform="translate(0.07 -0.68)"/><path class="cls-23" d="M26.9,28.44c-.74-2.64-3.45-3-4.19-3h-.17c-.72.07-3.45.5-4.12,3.2a1.23,1.23,0,0,0,0,.27h0s3.39,2.15,4.26,2.15,4-2,4.25-2.14A1.28,1.28,0,0,0,26.9,28.44Z" transform="translate(0.07 -0.68)"/><path class="cls-24" d="M18.42,28.63a1.23,1.23,0,0,0,0,.27h0S21.7,31,22.63,31.06c.26-5.2-.09-5.63-.09-5.63C21.82,25.5,19.09,25.93,18.42,28.63Z" transform="translate(0.07 -0.68)"/><path class="cls-25" d="M23.56,25.54a6.77,6.77,0,0,0-.85-.11h-.17s.35.43.09,5.63A31.58,31.58,0,0,0,23.56,25.54Z" transform="translate(0.07 -0.68)"/><path class="cls-11" d="M22.43,25.44h0Z" transform="translate(0.07 -0.68)"/><path class="cls-26" d="M175.72,16.86h3.44v16.7h-.24a3.2,3.2,0,0,1-3.2-3.2Zm-29.08,17a9,9,0,0,1-6.48-1.07A8.54,8.54,0,0,1,136,27.67a8.83,8.83,0,0,1,6.06-10.89,8.46,8.46,0,0,1,6.54.83c3.45,1.93,4.71,4.91,4.49,8.75l-13.89,0a5.31,5.31,0,0,0,6.38,4.15A7.68,7.68,0,0,0,148.86,28l2.83,2.07A7.14,7.14,0,0,1,146.64,33.85Zm2.63-10.64A4.13,4.13,0,0,0,147,20.5c-3-1.67-5.93-.25-7.3,2.7Zm47.21,1a3.92,3.92,0,0,0-1.55-3.25,5.46,5.46,0,0,0-3.51-1.11c-3.12,0-5.12,2.44-5.12,5.45a5.13,5.13,0,0,0,5.09,5.31c2.06,0,3.17-1.21,4.35-2.71v4.33a9.78,9.78,0,0,1-2,1.23,6.87,6.87,0,0,1-2.65.46c-5,0-8.24-4.11-8.24-8.86a8.33,8.33,0,0,1,2.28-6,8.44,8.44,0,0,1,6.34-2.49c4.93,0,8.46,2.83,8.46,7.94v9.1h-.25a3.2,3.2,0,0,1-3.2-3.2ZM179,14.88a1.94,1.94,0,0,1-1.51.59,2,2,0,0,1-2-2.05,1.92,1.92,0,0,1,2-2,2,2,0,0,1,2,2A2.12,2.12,0,0,1,179,14.88Zm-9.73,16.48a8,8,0,0,1-6.09,2.54,8.13,8.13,0,0,1-6.35-2.7,9.29,9.29,0,0,1-2.28-6.4,8.14,8.14,0,0,1,8.07-8.28,9.66,9.66,0,0,1,4.85,1.22v3.74a8.14,8.14,0,0,0-4.34-1.65c-3.22,0-5.13,2.21-5.13,5.35a5.07,5.07,0,0,0,5.19,5.41A4.51,4.51,0,0,0,166.7,29a7.07,7.07,0,0,0,1.43-4.78V12.57a3.21,3.21,0,0,1,3.21-3.21h.24V24.73A9.36,9.36,0,0,1,169.22,31.36Zm-37.34.12a7.74,7.74,0,0,1-5.7,2.42,9.15,9.15,0,0,1-4.84-1.26V29a8.28,8.28,0,0,0,4.35,1.64c3.21,0,5.12-2.21,5.12-5.35s-2-5.41-5.19-5.41a4.46,4.46,0,0,0-3.51,1.55,7.16,7.16,0,0,0-1.48,4.84v14.6h-.24a3.21,3.21,0,0,1-3.21-3.21V25.67c0-5.06,3.1-9.15,8.43-9.15a8.19,8.19,0,0,1,6.38,2.7,9.22,9.22,0,0,1,2.27,6.4A8,8,0,0,1,131.88,31.48Z" transform="translate(0.07 -0.68)"/><path class="cls-26" d="M76.29,21.32a4.83,4.83,0,0,0-3.65-1.49c-3.17,0-5.07,2.31-5.07,5.38s2,5.38,5.07,5.38,5.08-2.36,5.08-5.38A5.41,5.41,0,0,0,76.29,21.32Zm33.92,0a4.82,4.82,0,0,0-3.64-1.49c-3.17,0-5.07,2.31-5.07,5.38s1.94,5.38,5.07,5.38,5.07-2.36,5.07-5.38A5.41,5.41,0,0,0,110.21,21.32Zm2.49,10.13a8.86,8.86,0,0,1-12.23,0,8.27,8.27,0,0,1-2.56-6.24A8.7,8.7,0,0,1,112.68,19a8.27,8.27,0,0,1,2.58,6.22A8.27,8.27,0,0,1,112.7,31.45ZM94.9,20.88a20.6,20.6,0,0,1-1.18,1.82,4.53,4.53,0,0,1-.9.94c2.4.78,3.29,2.44,3.29,4.91v5h-.24a3.21,3.21,0,0,1-3.21-3.2V28.89c0-1.6-.71-2.69-2.41-2.69H87.12v7.36h-.25a3.2,3.2,0,0,1-3.2-3.2V12.57a3.21,3.21,0,0,1,3.2-3.21h.25v13.5h1a2.41,2.41,0,0,0,2.28-1.11l2.9-4.89h3.93ZM78.78,31.45a8.86,8.86,0,0,1-12.23,0A8.27,8.27,0,0,1,64,25.21,8.7,8.7,0,0,1,78.76,19a8.27,8.27,0,0,1,2.58,6.22A8.31,8.31,0,0,1,78.78,31.45Zm-20,2.11c-3.38,0-5-2.29-5-5.5V15.91a3.21,3.21,0,0,1,3.21-3.21h.24v4.16H63v3.31H57.15v8.28c0,1.41.63,1.8,2,1.8H63v3.31Z" transform="translate(0.07 -0.68)"/></g></g></svg>