<svg id="Layer_2" data-name="Layer 2" xmlns="http://www.w3.org/2000/svg" viewBox="0 0 137.72 41.39"><defs><style>.cls-1{fill:#ee4d2d;}</style></defs><path id="path2" class="cls-1" d="M26.17,32.28a5.35,5.35,0,0,1-3.29,4.38,8.48,8.48,0,0,1-3.55.61A11.77,11.77,0,0,1,14.5,36a13.9,13.9,0,0,1-1.93-1.32c-.15-.14-.18-.22-.07-.36s.15-.25.37-.57a6.59,6.59,0,0,0,.41-.6.29.29,0,0,1,.44,0l0,0,.08.07c.07.05.11.07.12.1a9.37,9.37,0,0,0,5.38,2c2.63,0,4.52-1.22,4.87-3,.36-2-1.21-3.73-4.27-4.69a31.84,31.84,0,0,1-3.84-1.53C14,24.88,13,23.27,13.16,21.27c.21-2.77,2.78-4.83,6-4.84a11,11,0,0,1,4.27.88,10.74,10.74,0,0,1,1.68.92c.18.13.21.27.1.43a4.85,4.85,0,0,1-.32.56h0c-.27.41-.28.43-.33.52s-.23.16-.42.05a9,9,0,0,0-5-1.54c-2.25,0-3.95,1.38-4.06,3.22,0,1.66,1.22,2.86,3.89,3.77,5.44,1.75,7.52,3.8,7.12,7M19.46,3.73c3.54,0,6.43,3.35,6.57,7.56H12.91c.12-4.21,3-7.56,6.55-7.56m18.33,8.36a.78.78,0,0,0-.77-.8H28.5c-.21-5.55-4.18-10-9-10s-8.81,4.43-9,10H1.92a.79.79,0,0,0-.77.8v.06h0L2.35,38.91c0,.07,0,.15,0,.23s0,0,0,.06v0h0a3.62,3.62,0,0,0,3.38,3.43H32.9a3.72,3.72,0,0,0,3.55-3.45h0v-.09s0-.09,0-.14l1.32-26.88h0v0" transform="translate(-1.14 -1.31)"/><path id="path7" class="cls-1" d="M129,25.93a3.78,3.78,0,0,1,3.66-2.65,4,4,0,0,1,3.75,2.65l.09.09H129Zm9.12,2.31h.08a.7.7,0,0,0,.64-.69v-.12a6.16,6.16,0,1,0-12.31,0,4.41,4.41,0,0,0,0,.81h0l0,.07a6,6,0,0,0,1.54,3.33h0a6.37,6.37,0,0,0,3.66,2h.09a.5.5,0,0,1,.17,0A8.39,8.39,0,0,0,137,33c.34-.18.68-.39.94-.56a.65.65,0,0,1,.25-.18c0-.07.05-.07.08-.07.29-.34.34-.45.11-.77s-.36-.6-.53-.85c-.08-.09-.1-.18-.17-.21v0h0c-.18-.26-.32-.26-.49-.09l-.09.09A5.73,5.73,0,0,1,132,31.47a5.18,5.18,0,0,1-1-.34,4.26,4.26,0,0,1-2.21-2.81v-.08Zm-23.78-2.31A3.79,3.79,0,0,1,118,23.28a4,4,0,0,1,3.75,2.65l.07.09h-7.5Zm9.14,2.31h.07a.71.71,0,0,0,.65-.69v-.12a6.17,6.17,0,1,0-12.33,0,3.17,3.17,0,0,0,.07.81h0v.07a6.1,6.1,0,0,0,1.53,3.33h0a6.4,6.4,0,0,0,3.66,2h.09a.42.42,0,0,1,.17,0,8.35,8.35,0,0,0,4.94-.74,9.34,9.34,0,0,0,.94-.56.68.68,0,0,1,.26-.18.07.07,0,0,1,.08-.07c.3-.34.34-.45.12-.77s-.37-.6-.54-.85c-.09-.09-.09-.18-.17-.21v0h0c-.18-.26-.34-.26-.51-.09l-.08.09a5.73,5.73,0,0,1-5.06,1.19,5.27,5.27,0,0,1-1-.34,4.26,4.26,0,0,1-2.21-2.81v-.08Zm-20.3,3.49A4.21,4.21,0,0,1,99,27.64v-.21a4.22,4.22,0,1,1,4.24,4.3m0-10.63a6.37,6.37,0,0,0-4.09,1.45l-.15.14V21.5c0-.34,0-.4-.38-.4H97.12c-.33,0-.39.06-.39.4V40.22c0,.29.06.37.39.37h1.46c.33,0,.38-.08.38-.37V32.41l.15.09a6.44,6.44,0,1,0,4.09-11.4M88,31.56a4.14,4.14,0,1,1,4.22-4.13A4.16,4.16,0,0,1,88,31.56m0-10.48a6.35,6.35,0,1,0,6.48,6.36A6.39,6.39,0,0,0,88,21.08m-14.44.12A6,6,0,0,0,70,22.4l-.13.11v-8.7c0-.32-.1-.4-.38-.4H67.9c-.3,0-.38.08-.38.4V33.6c0,.34.08.43.38.43h1.55c.28,0,.38-.1.38-.43V27.13a3.75,3.75,0,0,1,7.49,0V33.6c0,.34.06.43.38.43h1.54c.34,0,.38-.09.38-.43V27.13a6,6,0,0,0-6.05-5.93M52.09,30.42v0c-.23.32-.33.44-.38.52-.17.26-.14.39.13.6a10.57,10.57,0,0,0,1.94,1.28A11.72,11.72,0,0,0,58.58,34a10,10,0,0,0,3.53-.68,5.44,5.44,0,0,0,3.27-4.46c.33-3.24-1.78-5.26-7.2-6.88h0c-2.54-.85-3.73-1.94-3.73-3.43.08-1.68,1.64-3,3.74-3A8.42,8.42,0,0,1,62.82,17c.31.17.44.13.65-.16a3,3,0,0,0,.38-.52h0c.26-.35.34-.52.35-.52.17-.34.17-.48-.17-.68a9.57,9.57,0,0,0-1.67-.89,11.47,11.47,0,0,0-4.27-.81c-3.27.08-5.82,2.21-6,5-.09,2,.93,3.6,3.06,4.8A27.47,27.47,0,0,0,59,24.66c2.89.85,4.42,2.4,4.09,4.26-.26,1.7-2,2.81-4.48,2.89a9.32,9.32,0,0,1-5.15-1.87.32.32,0,0,0-.13-.09c-.1-.08-.1-.08-.13-.09-.3-.25-.51-.24-.68.09a3.68,3.68,0,0,0-.39.57" transform="translate(-1.14 -1.31)"/></svg>